<svg width="100" height="80" viewBox="0 0 100 80" fill="none" xmlns="http://www.w3.org/2000/svg">
<path d="M85.2481 57.959H2.77598C1.24033 57.959 0 59.1988 0 60.7338V77.2255C0 78.7605 1.24033 80.0003 2.77598 80.0003H85.2481C86.7837 80.0003 88.024 78.7605 88.024 77.2255V60.7338C88.024 59.1988 86.7837 57.959 85.2481 57.959ZM19.4909 74.4506H5.55195V63.5087H19.4909V74.4506ZM69.8719 74.4506H25.0429V63.5087H69.8719V74.4506ZM82.4721 74.4506H75.4239V63.5087H82.4721V74.4506Z" fill="#489FB5"/>
<path d="M93.5764 23.6377C90.2295 20.2922 88.6151 16.9073 88.7726 13.5814C89.0285 8.56305 93.2811 5.02069 93.3598 4.94197C94.5411 3.97766 94.738 2.24585 93.7733 1.04538C92.8086 -0.155083 91.0564 -0.35188 89.8751 0.612427C89.6191 0.809225 83.6341 5.6898 83.2206 13.2271C82.945 18.2061 85.1106 23.0277 89.6388 27.554C92.907 30.8208 94.5214 34.2254 94.4427 37.6891C94.3245 43.3372 89.7766 47.5486 89.7373 47.588C88.5954 48.6113 88.4576 50.4219 89.5404 51.5043C90.9382 52.9015 92.9267 52.1931 93.4583 51.7011C93.7142 51.4649 99.7977 45.9152 99.9946 37.8662C100.132 32.8479 97.9668 28.046 93.5764 23.6377Z" fill="#489FB5"/>
<path d="M80.9167 23.6377C77.5698 20.2922 75.9554 16.9073 76.1129 13.5814C76.3688 8.56305 80.6214 5.02069 80.7002 4.94197C81.8814 3.97766 82.0783 2.24585 81.1136 1.04538C80.1489 -0.155083 78.3967 -0.35188 77.2154 0.612427C76.9595 0.809225 70.9744 5.6898 70.561 13.2271C70.2853 18.2061 72.451 23.0277 76.9792 27.554C80.267 30.8405 81.8814 34.2451 81.8027 37.7088C81.6845 43.3568 77.1367 47.5683 77.0973 47.6077C75.9554 48.631 75.8176 50.4416 76.9004 51.5239C78.2982 52.9212 80.2867 52.2127 80.8183 51.7207C81.0742 51.4846 87.1577 45.9349 87.3546 37.8859C87.4924 32.8282 85.3268 28.0263 80.9167 23.6377Z" fill="#489FB5"/>
</svg>
