<svg width="231" height="34" viewBox="0 0 231 34" fill="none" xmlns="http://www.w3.org/2000/svg">
<path d="M3.32 31V9.76H5.72V13.72L5.28 13.36C5.73333 12.16 6.50667 11.2133 7.6 10.52C8.72 9.82667 10.04 9.48 11.56 9.48H12.92V11.88H11.28C9.54667 11.88 8.18667 12.44 7.2 13.56C6.21333 14.6533 5.72 16.1333 5.72 18V31H3.32ZM16.8747 31V9.76H19.2747V31H16.8747ZM16.8747 5.6V1.2H19.2747V5.6H16.8747ZM35.4191 31.48C33.4457 31.48 31.6591 31 30.0591 30.04C28.4857 29.0533 27.2457 27.72 26.3391 26.04C25.4324 24.36 24.9791 22.4667 24.9791 20.36C24.9791 18.2533 25.4324 16.36 26.3391 14.68C27.2457 13 28.4857 11.68 30.0591 10.72C31.6591 9.76 33.4457 9.28 35.4191 9.28C37.3657 9.28 39.0991 9.74667 40.6191 10.68C42.1391 11.5867 43.2857 12.8133 44.0591 14.36L43.6591 15.12V0.719999H46.0591V31H43.6591V25.6L44.0591 26.16C43.3124 27.8133 42.1657 29.12 40.6191 30.08C39.0991 31.0133 37.3657 31.48 35.4191 31.48ZM35.4991 29.08C37.0457 29.08 38.4191 28.7067 39.6191 27.96C40.8457 27.1867 41.8191 26.1467 42.5391 24.84C43.2591 23.5067 43.6191 22.0133 43.6191 20.36C43.6191 18.7067 43.2591 17.2267 42.5391 15.92C41.8191 14.6133 40.8457 13.5867 39.6191 12.84C38.4191 12.0667 37.0457 11.68 35.4991 11.68C33.9791 11.68 32.6191 12.0667 31.4191 12.84C30.2191 13.5867 29.2724 14.6133 28.5791 15.92C27.8857 17.2267 27.5391 18.7067 27.5391 20.36C27.5391 22.0133 27.8857 23.5067 28.5791 24.84C29.2724 26.1467 30.2191 27.1867 31.4191 27.96C32.6191 28.7067 33.9791 29.08 35.4991 29.08ZM62.415 31.48C60.415 31.48 58.615 31 57.015 30.04C55.415 29.0533 54.1483 27.72 53.215 26.04C52.2817 24.3333 51.815 22.4267 51.815 20.32C51.815 18.2133 52.2683 16.3333 53.175 14.68C54.0817 13 55.3083 11.68 56.855 10.72C58.4017 9.76 60.135 9.28 62.055 9.28C63.5217 9.28 64.8417 9.54667 66.015 10.08C67.215 10.6133 68.2417 11.36 69.095 12.32C69.975 13.2533 70.6417 14.3333 71.095 15.56C71.575 16.76 71.815 18.0267 71.815 19.36C71.815 19.6267 71.8017 19.9067 71.775 20.2C71.7483 20.4933 71.7083 20.8 71.655 21.12H53.215V18.92H70.295L69.215 19.76C69.375 18.2133 69.1483 16.8267 68.535 15.6C67.9217 14.3467 67.0417 13.36 65.895 12.64C64.775 11.8933 63.495 11.52 62.055 11.52C60.615 11.52 59.295 11.9067 58.095 12.68C56.895 13.4267 55.9483 14.4667 55.255 15.8C54.5617 17.1067 54.2417 18.6267 54.295 20.36C54.2417 22.0933 54.575 23.6267 55.295 24.96C56.015 26.2933 57.0017 27.3467 58.255 28.12C59.5083 28.8667 60.895 29.24 62.415 29.24C63.9617 29.24 65.3083 28.88 66.455 28.16C67.6017 27.4133 68.535 26.4267 69.255 25.2L71.295 26.28C70.815 27.2667 70.135 28.16 69.255 28.96C68.375 29.7333 67.3483 30.3467 66.175 30.8C65.0283 31.2533 63.775 31.48 62.415 31.48ZM87.7388 31.48C85.8721 31.48 84.1388 31.1333 82.5388 30.44C80.9388 29.72 79.5788 28.7467 78.4588 27.52C77.3388 26.2933 76.5121 24.88 75.9788 23.28L79.9788 21.6C80.6988 23.44 81.7521 24.8533 83.1388 25.84C84.5254 26.8267 86.1254 27.32 87.9388 27.32C89.0054 27.32 89.9388 27.16 90.7388 26.84C91.5388 26.4933 92.1521 26.0133 92.5788 25.4C93.0321 24.7867 93.2588 24.08 93.2588 23.28C93.2588 22.1867 92.9521 21.32 92.3388 20.68C91.7254 20.04 90.8188 19.5333 89.6188 19.16L84.0188 17.4C81.7788 16.7067 80.0721 15.6533 78.8988 14.24C77.7254 12.8 77.1388 11.12 77.1388 9.2C77.1388 7.52 77.5521 6.05333 78.3788 4.8C79.2054 3.52 80.3388 2.52 81.7788 1.8C83.2454 1.08 84.9121 0.719999 86.7788 0.719999C88.5654 0.719999 90.1921 1.04 91.6588 1.68C93.1254 2.29333 94.3788 3.14667 95.4188 4.24C96.4854 5.33333 97.2588 6.6 97.7387 8.04L93.8188 9.76C93.2321 8.18667 92.3121 6.97333 91.0588 6.12C89.8321 5.26666 88.4054 4.84 86.7788 4.84C85.7921 4.84 84.9254 5.01333 84.1788 5.36C83.4321 5.68 82.8454 6.16 82.4188 6.8C82.0188 7.41333 81.8188 8.13333 81.8188 8.96C81.8188 9.92 82.1254 10.7733 82.7388 11.52C83.3521 12.2667 84.2854 12.8267 85.5388 13.2L90.7388 14.84C93.1121 15.56 94.8988 16.6 96.0988 17.96C97.2988 19.2933 97.8988 20.96 97.8988 22.96C97.8988 24.6133 97.4588 26.08 96.5788 27.36C95.7254 28.64 94.5388 29.6533 93.0188 30.4C91.4988 31.12 89.7388 31.48 87.7388 31.48ZM102.757 31V0.719999H107.277V13.6L106.557 13.04C107.091 11.68 107.944 10.6533 109.117 9.96C110.291 9.24 111.651 8.88 113.197 8.88C114.797 8.88 116.211 9.22667 117.437 9.92C118.664 10.6133 119.624 11.5733 120.317 12.8C121.011 14.0267 121.357 15.4267 121.357 17V31H116.877V18.24C116.877 17.1467 116.664 16.2267 116.237 15.48C115.837 14.7067 115.277 14.12 114.557 13.72C113.837 13.2933 113.011 13.08 112.077 13.08C111.171 13.08 110.344 13.2933 109.597 13.72C108.877 14.12 108.304 14.7067 107.877 15.48C107.477 16.2533 107.277 17.1733 107.277 18.24V31H102.757ZM132.675 31.48C131.208 31.48 129.915 31.2267 128.795 30.72C127.701 30.1867 126.848 29.4667 126.235 28.56C125.621 27.6267 125.315 26.5333 125.315 25.28C125.315 24.1067 125.568 23.0533 126.075 22.12C126.608 21.1867 127.421 20.4 128.515 19.76C129.608 19.12 130.981 18.6667 132.635 18.4L140.155 17.16V20.72L133.515 21.88C132.315 22.0933 131.435 22.48 130.875 23.04C130.315 23.5733 130.035 24.2667 130.035 25.12C130.035 25.9467 130.341 26.6267 130.955 27.16C131.595 27.6667 132.408 27.92 133.395 27.92C134.621 27.92 135.688 27.6533 136.595 27.12C137.528 26.5867 138.248 25.88 138.755 25C139.261 24.0933 139.515 23.0933 139.515 22V16.44C139.515 15.3733 139.115 14.5067 138.315 13.84C137.541 13.1467 136.501 12.8 135.195 12.8C133.995 12.8 132.941 13.12 132.035 13.76C131.155 14.3733 130.501 15.1733 130.075 16.16L126.315 14.28C126.715 13.2133 127.368 12.28 128.275 11.48C129.181 10.6533 130.235 10.0133 131.435 9.56C132.661 9.10667 133.955 8.88 135.315 8.88C137.021 8.88 138.528 9.2 139.835 9.84C141.168 10.48 142.195 11.3733 142.915 12.52C143.661 13.64 144.035 14.9467 144.035 16.44V31H139.715V27.08L140.635 27.2C140.128 28.08 139.475 28.84 138.675 29.48C137.901 30.12 137.008 30.6133 135.995 30.96C135.008 31.3067 133.901 31.48 132.675 31.48ZM149.32 31V9.36H153.64V13.72L153.24 13.08C153.72 11.6667 154.493 10.6533 155.56 10.04C156.626 9.4 157.906 9.08 159.4 9.08H160.72V13.2H158.84C157.346 13.2 156.133 13.6667 155.2 14.6C154.293 15.5067 153.84 16.8133 153.84 18.52V31H149.32ZM173.972 31.48C171.812 31.48 169.892 30.9867 168.212 30C166.559 28.9867 165.265 27.6267 164.332 25.92C163.399 24.1867 162.932 22.2533 162.932 20.12C162.932 17.9333 163.399 16 164.332 14.32C165.292 12.64 166.572 11.32 168.172 10.36C169.772 9.37333 171.585 8.88 173.612 8.88C175.239 8.88 176.692 9.16 177.972 9.72C179.252 10.28 180.332 11.0533 181.212 12.04C182.092 13 182.759 14.1067 183.212 15.36C183.692 16.6133 183.932 17.9467 183.932 19.36C183.932 19.7067 183.919 20.0667 183.892 20.44C183.865 20.8133 183.812 21.16 183.732 21.48H166.492V17.88H181.172L179.012 19.52C179.279 18.2133 179.185 17.0533 178.732 16.04C178.305 15 177.639 14.1867 176.732 13.6C175.852 12.9867 174.812 12.68 173.612 12.68C172.412 12.68 171.345 12.9867 170.412 13.6C169.479 14.1867 168.759 15.04 168.252 16.16C167.745 17.2533 167.545 18.5867 167.652 20.16C167.519 21.6267 167.719 22.9067 168.252 24C168.812 25.0933 169.585 25.9467 170.572 26.56C171.585 27.1733 172.732 27.48 174.012 27.48C175.319 27.48 176.425 27.1867 177.332 26.6C178.265 26.0133 178.999 25.2533 179.532 24.32L183.212 26.12C182.785 27.1333 182.119 28.0533 181.212 28.88C180.332 29.68 179.265 30.32 178.012 30.8C176.785 31.2533 175.439 31.48 173.972 31.48Z" fill="black"/>
<circle cx="196" cy="26" r="5" fill="#EF8D4C"/>
</svg>
