<svg width="112" height="130" viewBox="0 0 112 130" fill="none" xmlns="http://www.w3.org/2000/svg">
<path d="M5.4 104V97.2L26 74.9C30.0667 70.5667 33.3 67 35.7 64.2C38.1667 61.4 39.9667 58.9 41.1 56.7C42.2333 54.5 42.8 52.1667 42.8 49.7C42.8 45.6333 41.6 42.5 39.2 40.3C36.8 38.1 33.6333 37 29.7 37C25.7 37 22.3 38.1667 19.5 40.5C16.7 42.7667 14.7667 46 13.7 50.2L4.8 47.9C5.66667 43.9 7.26667 40.4333 9.6 37.5C11.9333 34.5667 14.8333 32.3 18.3 30.7C21.7667 29.1 25.5667 28.3 29.7 28.3C34.2333 28.3 38.2 29.2 41.6 31C45.0667 32.7333 47.7667 35.1667 49.7 38.3C51.7 41.4333 52.7 45.0667 52.7 49.2C52.7 51.9333 52.1333 54.6 51 57.2C49.8667 59.8 48.2 62.5667 46 65.5C43.8 68.3667 40.9333 71.7 37.4 75.5L19 95.5H54.3V104H5.4Z" fill="#489FB5"/>
<path d="M60 12.6H86.95V17.15H81.45L82.3 16.5C84 17.1667 85.3 18.2333 86.2 19.7C87.1 21.1667 87.55 22.8167 87.55 24.65C87.55 26.75 86.9667 28.6333 85.8 30.3C84.6333 32 83.1 33.1667 81.2 33.8L81.15 32.5C83.25 33.2 84.8333 34.3833 85.9 36.05C87 37.7167 87.55 39.5667 87.55 41.6C87.55 43.4667 87.1167 45.15 86.25 46.65C85.3833 48.1833 84.1833 49.4 82.65 50.3C81.1167 51.2 79.3833 51.65 77.45 51.65H60V46.95H75.95C77.45 46.95 78.7167 46.6833 79.75 46.15C80.7833 45.6167 81.5833 44.8833 82.15 43.95C82.75 43.05 83.05 41.9833 83.05 40.75C83.05 39.55 82.75 38.4667 82.15 37.5C81.5833 36.5667 80.7667 35.8167 79.7 35.25C78.6667 34.7167 77.4167 34.45 75.95 34.45H60V29.75H75.95C77.45 29.75 78.7167 29.4833 79.75 28.95C80.7833 28.4167 81.5833 27.6833 82.15 26.75C82.75 25.85 83.05 24.7833 83.05 23.55C83.05 22.35 82.75 21.2667 82.15 20.3C81.5833 19.3667 80.7667 18.6167 79.7 18.05C78.6667 17.5167 77.4167 17.25 75.95 17.25H60V12.6ZM59.4 66.1543C59.4 64.3876 59.7167 62.821 60.35 61.4543C61.0167 60.121 61.9167 59.071 63.05 58.3043C64.2167 57.5376 65.55 57.1543 67.05 57.1543C68.4833 57.1543 69.7667 57.4543 70.9 58.0543C72.0667 58.6876 73.05 59.6543 73.85 60.9543C74.65 62.2876 75.2167 63.9543 75.55 65.9543L77.2 75.9543H73.3L71.8 67.0043C71.5 65.271 70.95 64.0043 70.15 63.2043C69.35 62.4376 68.3667 62.0543 67.2 62.0543C66.1 62.0543 65.1833 62.4876 64.45 63.3543C63.7167 64.2543 63.35 65.371 63.35 66.7043C63.35 68.4043 63.7 69.871 64.4 71.1043C65.1333 72.371 66.1167 73.3543 67.35 74.0543C68.5833 74.7876 69.95 75.1543 71.45 75.1543H78.3C79.7667 75.1543 80.95 74.6043 81.85 73.5043C82.7833 72.4376 83.25 71.021 83.25 69.2543C83.25 67.721 82.85 66.3543 82.05 65.1543C81.2833 63.9876 80.25 63.121 78.95 62.5543L81.05 58.5043C82.2833 59.0043 83.3833 59.8043 84.35 60.9043C85.35 62.0043 86.1333 63.2876 86.7 64.7543C87.2667 66.221 87.55 67.7543 87.55 69.3543C87.55 71.421 87.15 73.2376 86.35 74.8043C85.5833 76.371 84.5 77.5876 83.1 78.4543C81.7333 79.3543 80.1333 79.8043 78.3 79.8043H60V75.2543H65.1L64.8 76.1043C63.7333 75.5376 62.8 74.771 62 73.8043C61.2 72.8376 60.5667 71.7043 60.1 70.4043C59.6333 69.1043 59.4 67.6876 59.4 66.1543ZM60 83.9641L73.5 93.4141L86.95 84.0141V89.6141L75.25 97.6641V94.8141L86.95 102.764V108.414L73.5 99.0141L60 108.364V102.764L71.7 94.8141V97.6141L60 89.6641V83.9641Z" fill="#489FB5"/>
</svg>
