<svg width="84" height="79" viewBox="0 0 84 79" fill="none" xmlns="http://www.w3.org/2000/svg">
<path d="M18.6417 27.0393C19.9512 29.9246 20.2109 33.258 19.3672 36.3499C18.5234 39.4418 16.6407 42.0555 14.1087 43.6503C9.29638 45.529 3.52163 41.1191 1.21648 33.8155C-0.0952633 30.9303 -0.356856 27.5959 0.48585 24.5026C1.32856 21.4092 3.21103 18.7939 5.7436 17.1979C10.5559 15.3192 16.3306 19.7357 18.6417 27.0393ZM57.3837 78.9686C55.2837 78.9718 53.2038 78.5146 51.2636 77.6232C49.3233 76.7318 47.561 75.4238 46.0777 73.7744C44.9682 72.5442 43.4638 71.8533 41.8952 71.8533C40.3266 71.8533 38.8223 72.5442 37.7127 73.7744C34.7075 77.0706 30.6486 78.9132 26.4228 78.8997C22.197 78.8862 18.1478 77.0178 15.1597 73.7024C12.1716 70.3871 10.4876 65.8945 10.4754 61.206C10.4633 56.5174 12.124 52.0141 15.0949 48.6798C18.6134 44.7729 22.7913 41.6737 27.3898 39.5591C31.9883 37.4446 36.9174 36.3562 41.8952 36.3562C46.873 36.3562 51.8021 37.4446 56.4006 39.5591C60.9992 41.6737 65.177 44.7729 68.6955 48.6798C70.9313 51.1618 72.4537 54.3236 73.0701 57.7655C73.6865 61.2073 73.3692 64.7747 72.1585 68.0165C70.9478 71.2584 68.8979 74.0292 66.2681 75.9786C63.6382 77.928 60.5465 78.9685 57.3837 78.9686ZM40.2911 14.8908C41.0456 23.7039 36.9463 31.3436 31.1418 31.9501C25.3374 32.5565 20.0201 25.9055 19.2715 17.0924C18.517 8.28589 22.6163 0.646117 28.4208 0.0396813C34.2252 -0.573346 39.5366 6.07767 40.2911 14.8908ZM43.4993 14.8908C42.7448 23.7039 46.8441 31.3436 52.6486 31.9501C58.4531 32.5565 63.7644 25.9055 64.5189 17.0924C65.2734 8.28589 61.1741 0.646117 55.3696 0.0396813C49.5652 -0.573346 44.2479 6.07767 43.4993 14.8908ZM65.1487 27.0327C63.8356 29.9194 63.574 33.2559 64.4179 36.3509C65.2618 39.4459 67.1466 42.0619 69.6817 43.6569C74.494 45.529 80.2688 41.1191 82.5739 33.8155C83.8857 30.9303 84.1473 27.5959 83.3046 24.5026C82.4619 21.4092 80.5794 18.7939 78.0468 17.1979C73.2345 15.3192 67.4598 19.7291 65.1487 27.0327Z" fill="#489FB5" stroke="#00C9AC" stroke-width="0.001"/>
</svg>
