<svg width="93" height="46" viewBox="0 0 93 46" fill="none" xmlns="http://www.w3.org/2000/svg">
<path d="M13.7422 41C13.7422 41 0.75 27.6056 0.75 17.9922C0.75 10.8324 6.54218 5 13.7422 5C20.9422 5 26.7344 10.7922 26.7344 17.9922C26.7344 23.905 20.8617 32.2715 17.0003 37.0983" stroke="black" stroke-width="1.5" stroke-miterlimit="10" stroke-linecap="round" stroke-linejoin="round"/>
<path d="M13.7422 24.0253C16.9855 24.0253 19.6148 21.396 19.6148 18.1527C19.6148 14.9093 16.9855 12.28 13.7422 12.28C10.4988 12.28 7.86954 14.9093 7.86954 18.1527C7.86954 21.396 10.4988 24.0253 13.7422 24.0253Z" stroke="black" stroke-width="1.5" stroke-miterlimit="10" stroke-linecap="round" stroke-linejoin="round"/>
<path d="M33.686 23V6.61H39.318C40.3887 6.61 41.3273 6.82267 42.134 7.248C42.9407 7.65867 43.564 8.24533 44.004 9.008C44.4587 9.756 44.686 10.6287 44.686 11.626C44.686 12.7847 44.378 13.7747 43.762 14.596C43.1607 15.4173 42.3393 15.9967 41.298 16.334L45.126 23H43.058L39.054 15.938L40.242 16.62H35.446V23H33.686ZM35.446 14.97H39.406C40.11 14.97 40.726 14.838 41.254 14.574C41.782 14.2953 42.1927 13.9067 42.486 13.408C42.7793 12.8947 42.926 12.2933 42.926 11.604C42.926 10.9147 42.7793 10.3207 42.486 9.822C42.1927 9.32333 41.782 8.942 41.254 8.678C40.726 8.39933 40.11 8.26 39.406 8.26H35.446V14.97ZM47.5378 23V11.208H49.1878V23H47.5378ZM47.5378 9.03V6.61H49.1878V9.03H47.5378ZM57.8891 23.264C56.7891 23.264 55.7991 23 54.9191 22.472C54.0391 21.9293 53.3424 21.196 52.8291 20.272C52.3304 19.3333 52.0811 18.2773 52.0811 17.104C52.0811 15.916 52.3304 14.86 52.8291 13.936C53.3424 13.012 54.0318 12.286 54.8971 11.758C55.7771 11.2153 56.7744 10.944 57.8891 10.944C58.9011 10.944 59.8031 11.164 60.5951 11.604C61.3871 12.044 62.0104 12.638 62.4651 13.386L62.2011 13.848V6.346H63.8511V23H62.2011V20.36L62.4651 20.602C62.0544 21.4527 61.4384 22.1127 60.6171 22.582C59.8104 23.0367 58.9011 23.264 57.8891 23.264ZM57.9771 21.614C58.7691 21.614 59.4804 21.416 60.1111 21.02C60.7564 20.624 61.2624 20.0887 61.6291 19.414C62.0104 18.7247 62.2011 17.9547 62.2011 17.104C62.2011 16.2533 62.0104 15.4907 61.6291 14.816C61.2624 14.1267 60.7564 13.584 60.1111 13.188C59.4804 12.792 58.7691 12.594 57.9771 12.594C57.1998 12.594 56.4958 12.792 55.8651 13.188C55.2344 13.584 54.7358 14.1193 54.3691 14.794C54.0171 15.4687 53.8411 16.2387 53.8411 17.104C53.8411 17.9547 54.0171 18.7247 54.3691 19.414C54.7358 20.0887 55.2271 20.624 55.8431 21.02C56.4738 21.416 57.1851 21.614 57.9771 21.614ZM72.6069 23.264C71.5069 23.264 70.5096 23 69.6149 22.472C68.7349 21.9293 68.0383 21.1887 67.5249 20.25C67.0116 19.3113 66.7549 18.248 66.7549 17.06C66.7549 15.872 67.0043 14.8233 67.5029 13.914C68.0016 12.99 68.6763 12.264 69.5269 11.736C70.3923 11.208 71.3603 10.944 72.4309 10.944C73.2816 10.944 74.0369 11.1053 74.6969 11.428C75.3716 11.736 75.9436 12.1613 76.4129 12.704C76.8823 13.232 77.2416 13.8333 77.4909 14.508C77.7403 15.168 77.8649 15.85 77.8649 16.554C77.8649 16.7007 77.8576 16.8693 77.8429 17.06C77.8283 17.236 77.8063 17.4193 77.7769 17.61H67.8109V16.07H76.8309L76.0389 16.73C76.1709 15.9233 76.0756 15.2047 75.7529 14.574C75.4449 13.9287 74.9976 13.4227 74.4109 13.056C73.8243 12.6747 73.1643 12.484 72.4309 12.484C71.6976 12.484 71.0156 12.6747 70.3849 13.056C69.7689 13.4373 69.2849 13.9727 68.9329 14.662C68.5809 15.3367 68.4416 16.1433 68.5149 17.082C68.4416 18.0207 68.5883 18.842 68.9549 19.546C69.3363 20.2353 69.8496 20.7707 70.4949 21.152C71.1549 21.5333 71.8589 21.724 72.6069 21.724C73.4723 21.724 74.1983 21.5187 74.7849 21.108C75.3716 20.6973 75.8483 20.184 76.2149 19.568L77.6229 20.316C77.3883 20.844 77.0289 21.3353 76.5449 21.79C76.0609 22.23 75.4816 22.5893 74.8069 22.868C74.1469 23.132 73.4136 23.264 72.6069 23.264Z" fill="black"/>
<path d="M39.208 41.264C38.1667 41.264 37.2207 41.066 36.37 40.67C35.5193 40.274 34.8007 39.746 34.214 39.086C33.6273 38.4113 33.2093 37.6707 32.96 36.864L34.544 36.27C34.9253 37.3847 35.5193 38.2353 36.326 38.822C37.1327 39.394 38.0933 39.68 39.208 39.68C39.912 39.68 40.528 39.57 41.056 39.35C41.5987 39.1153 42.0167 38.7927 42.31 38.382C42.6033 37.9713 42.75 37.4947 42.75 36.952C42.75 36.1453 42.53 35.522 42.09 35.082C41.65 34.642 41.0193 34.3047 40.198 34.07L37.25 33.19C36.0913 32.8527 35.1967 32.288 34.566 31.496C33.95 30.704 33.642 29.802 33.642 28.79C33.642 27.9247 33.8547 27.162 34.28 26.502C34.7053 25.8273 35.2847 25.2993 36.018 24.918C36.766 24.5367 37.6093 24.346 38.548 24.346C39.5307 24.346 40.4107 24.5293 41.188 24.896C41.98 25.248 42.6473 25.7173 43.19 26.304C43.7327 26.8907 44.1213 27.5433 44.356 28.262L42.816 28.878C42.464 27.91 41.914 27.1767 41.166 26.678C40.4327 26.1793 39.5673 25.93 38.57 25.93C37.9393 25.93 37.382 26.04 36.898 26.26C36.4287 26.48 36.062 26.7953 35.798 27.206C35.534 27.6167 35.402 28.1007 35.402 28.658C35.402 29.3327 35.6147 29.9413 36.04 30.484C36.4653 31.012 37.118 31.408 37.998 31.672L40.594 32.442C41.8847 32.8233 42.86 33.3733 43.52 34.092C44.18 34.8107 44.51 35.7127 44.51 36.798C44.51 37.678 44.2827 38.4553 43.828 39.13C43.388 39.79 42.7647 40.3107 41.958 40.692C41.166 41.0733 40.2493 41.264 39.208 41.264ZM47.6667 41V24.346H49.3167V31.496L48.9427 31.408C49.236 30.6453 49.7127 30.044 50.3727 29.604C51.0473 29.164 51.8247 28.944 52.7047 28.944C53.5407 28.944 54.2887 29.1347 54.9487 29.516C55.6233 29.8973 56.1513 30.4253 56.5327 31.1C56.9287 31.76 57.1267 32.508 57.1267 33.344V41H55.4767V33.982C55.4767 33.2633 55.3447 32.6547 55.0807 32.156C54.8167 31.6573 54.45 31.276 53.9807 31.012C53.526 30.7333 53.0053 30.594 52.4187 30.594C51.832 30.594 51.304 30.7333 50.8347 31.012C50.3653 31.276 49.9913 31.6647 49.7127 32.178C49.4487 32.6767 49.3167 33.278 49.3167 33.982V41H47.6667ZM63.688 41.264C62.94 41.264 62.2727 41.1247 61.686 40.846C61.0993 40.5527 60.6373 40.1567 60.3 39.658C59.9627 39.1593 59.794 38.5873 59.794 37.942C59.794 37.326 59.926 36.7687 60.19 36.27C60.454 35.7567 60.8647 35.324 61.422 34.972C61.9793 34.62 62.6907 34.3707 63.556 34.224L68.176 33.454V34.95L63.952 35.654C63.1013 35.8007 62.4853 36.072 62.104 36.468C61.7373 36.864 61.554 37.3333 61.554 37.876C61.554 38.404 61.7593 38.8513 62.17 39.218C62.5953 39.5847 63.138 39.768 63.798 39.768C64.6047 39.768 65.3087 39.5993 65.91 39.262C66.5113 38.91 66.9807 38.4407 67.318 37.854C67.6553 37.2673 67.824 36.6147 67.824 35.896V32.904C67.824 32.2 67.5673 31.628 67.054 31.188C66.5407 30.748 65.8733 30.528 65.052 30.528C64.3333 30.528 63.7027 30.7113 63.16 31.078C62.6173 31.43 62.214 31.892 61.95 32.464L60.454 31.65C60.674 31.1513 61.0187 30.6967 61.488 30.286C61.972 29.8753 62.522 29.5527 63.138 29.318C63.754 29.0687 64.392 28.944 65.052 28.944C65.9173 28.944 66.68 29.1127 67.34 29.45C68.0147 29.7873 68.5353 30.2567 68.902 30.858C69.2833 31.4447 69.474 32.1267 69.474 32.904V41H67.824V38.646L68.066 38.888C67.8607 39.328 67.538 39.7313 67.098 40.098C66.6727 40.45 66.1667 40.736 65.58 40.956C65.008 41.1613 64.3773 41.264 63.688 41.264ZM72.8678 41V29.208H74.5178V31.144L74.2978 30.858C74.5765 30.3007 74.9945 29.8607 75.5518 29.538C76.1238 29.2153 76.8132 29.054 77.6198 29.054H78.3678V30.704H77.3338C76.4832 30.704 75.8012 30.968 75.2878 31.496C74.7745 32.024 74.5178 32.772 74.5178 33.74V41H72.8678ZM85.6694 41.264C84.5694 41.264 83.5721 41 82.6774 40.472C81.7974 39.9293 81.1008 39.1887 80.5874 38.25C80.0741 37.3113 79.8174 36.248 79.8174 35.06C79.8174 33.872 80.0668 32.8233 80.5654 31.914C81.0641 30.99 81.7388 30.264 82.5894 29.736C83.4548 29.208 84.4228 28.944 85.4934 28.944C86.3441 28.944 87.0994 29.1053 87.7594 29.428C88.4341 29.736 89.0061 30.1613 89.4754 30.704C89.9448 31.232 90.3041 31.8333 90.5534 32.508C90.8028 33.168 90.9274 33.85 90.9274 34.554C90.9274 34.7007 90.9201 34.8693 90.9054 35.06C90.8908 35.236 90.8688 35.4193 90.8394 35.61H80.8734V34.07H89.8934L89.1014 34.73C89.2334 33.9233 89.1381 33.2047 88.8154 32.574C88.5074 31.9287 88.0601 31.4227 87.4734 31.056C86.8868 30.6747 86.2268 30.484 85.4934 30.484C84.7601 30.484 84.0781 30.6747 83.4474 31.056C82.8314 31.4373 82.3474 31.9727 81.9954 32.662C81.6434 33.3367 81.5041 34.1433 81.5774 35.082C81.5041 36.0207 81.6508 36.842 82.0174 37.546C82.3988 38.2353 82.9121 38.7707 83.5574 39.152C84.2174 39.5333 84.9214 39.724 85.6694 39.724C86.5348 39.724 87.2608 39.5187 87.8474 39.108C88.4341 38.6973 88.9108 38.184 89.2774 37.568L90.6854 38.316C90.4508 38.844 90.0914 39.3353 89.6074 39.79C89.1234 40.23 88.5441 40.5893 87.8694 40.868C87.2094 41.132 86.4761 41.264 85.6694 41.264Z" fill="black"/>
</svg>
