<svg width="95" height="46" viewBox="0 0 95 46" fill="none" xmlns="http://www.w3.org/2000/svg">
<path d="M14.2422 41C14.2422 41 1.25 27.6056 1.25 17.9922C1.25 10.8324 7.04218 5 14.2422 5C21.4422 5 27.2344 10.7922 27.2344 17.9922C27.2344 23.905 21.3617 32.2715 17.5003 37.0983" stroke="black" stroke-width="2.5" stroke-miterlimit="10" stroke-linecap="round" stroke-linejoin="round"/>
<path d="M14.2422 24.0253C17.4855 24.0253 20.1148 21.396 20.1148 18.1527C20.1148 14.9093 17.4855 12.28 14.2422 12.28C10.9988 12.28 8.36954 14.9093 8.36954 18.1527C8.36954 21.396 10.9988 24.0253 14.2422 24.0253Z" stroke="black" stroke-width="2.5" stroke-miterlimit="10" stroke-linecap="round" stroke-linejoin="round"/>
<path d="M33.834 23V6.61H39.928C41.0427 6.61 42.0253 6.81533 42.876 7.226C43.7413 7.622 44.416 8.20867 44.9 8.986C45.384 9.74867 45.626 10.68 45.626 11.78C45.626 12.9093 45.3547 13.87 44.812 14.662C44.284 15.454 43.5653 16.0407 42.656 16.422L46.418 23H43.03L39.004 15.806L40.94 16.95H36.826V23H33.834ZM36.826 14.31H39.972C40.5147 14.31 40.984 14.2073 41.38 14.002C41.776 13.782 42.084 13.4813 42.304 13.1C42.524 12.7187 42.634 12.2787 42.634 11.78C42.634 11.2667 42.524 10.8267 42.304 10.46C42.084 10.0787 41.776 9.78533 41.38 9.58C40.984 9.36 40.5147 9.25 39.972 9.25H36.826V14.31ZM48.1369 23V11.032H51.0189V23H48.1369ZM48.1369 9.69V6.61H51.0189V9.69H48.1369ZM59.2459 23.264C58.0872 23.264 57.0532 22.9927 56.1439 22.45C55.2346 21.8927 54.5159 21.1373 53.9879 20.184C53.4599 19.2307 53.1959 18.1747 53.1959 17.016C53.1959 15.8427 53.4599 14.7867 53.9879 13.848C54.5159 12.9093 55.2346 12.1613 56.1439 11.604C57.0679 11.0467 58.0946 10.768 59.2239 10.768C60.1332 10.768 60.9399 10.9513 61.6439 11.318C62.3626 11.67 62.9272 12.1687 63.3379 12.814L62.8979 13.408V6.346H65.7799V23H63.0519V20.69L63.3599 21.262C62.9492 21.9073 62.3772 22.406 61.6439 22.758C60.9106 23.0953 60.1112 23.264 59.2459 23.264ZM59.5539 20.624C60.2139 20.624 60.7932 20.47 61.2919 20.162C61.7906 19.854 62.1792 19.4287 62.4579 18.886C62.7512 18.3433 62.8979 17.72 62.8979 17.016C62.8979 16.3267 62.7512 15.7107 62.4579 15.168C62.1792 14.6107 61.7906 14.178 61.2919 13.87C60.7932 13.562 60.2139 13.408 59.5539 13.408C58.9086 13.408 58.3292 13.5693 57.8159 13.892C57.3026 14.2 56.8992 14.6253 56.6059 15.168C56.3272 15.696 56.1879 16.312 56.1879 17.016C56.1879 17.72 56.3272 18.3433 56.6059 18.886C56.8992 19.4287 57.3026 19.854 57.8159 20.162C58.3292 20.47 58.9086 20.624 59.5539 20.624ZM74.1371 23.264C72.9051 23.264 71.8271 22.9853 70.9031 22.428C69.9791 21.8707 69.2605 21.1153 68.7471 20.162C68.2338 19.2087 67.9771 18.1527 67.9771 16.994C67.9771 15.7913 68.2338 14.728 68.7471 13.804C69.2751 12.8653 69.9865 12.1247 70.8811 11.582C71.7905 11.0393 72.8025 10.768 73.9171 10.768C74.8558 10.768 75.6771 10.922 76.3811 11.23C77.0998 11.538 77.7085 11.9633 78.2071 12.506C78.7058 13.0487 79.0871 13.672 79.3511 14.376C79.6151 15.0653 79.7471 15.8133 79.7471 16.62C79.7471 16.8253 79.7325 17.038 79.7031 17.258C79.6885 17.478 79.6518 17.6687 79.5931 17.83H70.3531V15.63H77.9651L76.6011 16.664C76.7331 15.9893 76.6965 15.388 76.4911 14.86C76.3005 14.332 75.9778 13.914 75.5231 13.606C75.0831 13.298 74.5478 13.144 73.9171 13.144C73.3158 13.144 72.7805 13.298 72.3111 13.606C71.8418 13.8993 71.4825 14.3393 71.2331 14.926C70.9985 15.498 70.9105 16.1947 70.9691 17.016C70.9105 17.7493 71.0058 18.402 71.2551 18.974C71.5191 19.5313 71.9005 19.964 72.3991 20.272C72.9125 20.58 73.4991 20.734 74.1591 20.734C74.8191 20.734 75.3765 20.5947 75.8311 20.316C76.3005 20.0373 76.6671 19.6633 76.9311 19.194L79.2631 20.338C79.0285 20.91 78.6618 21.416 78.1631 21.856C77.6645 22.296 77.0705 22.6407 76.3811 22.89C75.7065 23.1393 74.9585 23.264 74.1371 23.264Z" fill="black"/>
<path d="M39.686 41.264C38.6447 41.264 37.6767 41.0733 36.782 40.692C35.902 40.3107 35.1393 39.7827 34.494 39.108C33.8633 38.4187 33.4013 37.6193 33.108 36.71L35.594 35.632C35.99 36.5707 36.562 37.3113 37.31 37.854C38.058 38.382 38.9013 38.646 39.84 38.646C40.368 38.646 40.8227 38.5653 41.204 38.404C41.6 38.228 41.9007 37.9933 42.106 37.7C42.326 37.4067 42.436 37.0547 42.436 36.644C42.436 36.16 42.2893 35.764 41.996 35.456C41.7173 35.1333 41.292 34.884 40.72 34.708L37.574 33.696C36.298 33.3 35.3373 32.706 34.692 31.914C34.0467 31.122 33.724 30.1907 33.724 29.12C33.724 28.1813 33.9513 27.3527 34.406 26.634C34.8753 25.9153 35.5207 25.358 36.342 24.962C37.178 24.5513 38.1313 24.346 39.202 24.346C40.1847 24.346 41.0867 24.522 41.908 24.874C42.7293 25.2113 43.4333 25.688 44.02 26.304C44.6213 26.9053 45.0687 27.6167 45.362 28.438L42.898 29.538C42.5753 28.7167 42.0913 28.086 41.446 27.646C40.8007 27.1913 40.0527 26.964 39.202 26.964C38.7033 26.964 38.2633 27.052 37.882 27.228C37.5007 27.3893 37.2 27.624 36.98 27.932C36.7747 28.2253 36.672 28.5773 36.672 28.988C36.672 29.4427 36.8187 29.846 37.112 30.198C37.4053 30.5353 37.8527 30.7993 38.454 30.99L41.468 31.936C42.7733 32.3613 43.7487 32.948 44.394 33.696C45.054 34.444 45.384 35.368 45.384 36.468C45.384 37.4067 45.142 38.2353 44.658 38.954C44.174 39.6727 43.5067 40.2373 42.656 40.648C41.8053 41.0587 40.8153 41.264 39.686 41.264ZM47.8361 41V24.346H50.7181V31.386L50.3221 30.968C50.6008 30.2493 51.0555 29.7067 51.6861 29.34C52.3315 28.9587 53.0795 28.768 53.9301 28.768C54.8101 28.768 55.5875 28.9587 56.2621 29.34C56.9515 29.7213 57.4868 30.2567 57.8681 30.946C58.2495 31.6207 58.4401 32.4053 58.4401 33.3V41H55.5581V33.982C55.5581 33.454 55.4555 32.9993 55.2501 32.618C55.0448 32.2367 54.7588 31.9433 54.3921 31.738C54.0401 31.518 53.6221 31.408 53.1381 31.408C52.6688 31.408 52.2508 31.518 51.8841 31.738C51.5175 31.9433 51.2315 32.2367 51.0261 32.618C50.8208 32.9993 50.7181 33.454 50.7181 33.982V41H47.8361ZM64.5072 41.264C63.6712 41.264 62.9452 41.1247 62.3292 40.846C61.7132 40.5673 61.2365 40.1713 60.8992 39.658C60.5618 39.13 60.3932 38.5213 60.3932 37.832C60.3932 37.172 60.5398 36.5853 60.8332 36.072C61.1265 35.544 61.5812 35.104 62.1972 34.752C62.8132 34.4 63.5905 34.1507 64.5292 34.004L68.4452 33.366V35.566L65.0792 36.138C64.5072 36.2407 64.0818 36.424 63.8032 36.688C63.5245 36.952 63.3852 37.2967 63.3852 37.722C63.3852 38.1327 63.5392 38.4627 63.8472 38.712C64.1698 38.9467 64.5658 39.064 65.0352 39.064C65.6365 39.064 66.1645 38.9393 66.6192 38.69C67.0885 38.426 67.4478 38.0667 67.6972 37.612C67.9612 37.1573 68.0932 36.6587 68.0932 36.116V33.036C68.0932 32.5227 67.8878 32.0973 67.4772 31.76C67.0812 31.408 66.5532 31.232 65.8932 31.232C65.2772 31.232 64.7272 31.4007 64.2432 31.738C63.7738 32.0607 63.4292 32.4933 63.2092 33.036L60.8552 31.892C61.0898 31.2613 61.4565 30.7187 61.9552 30.264C62.4685 29.7947 63.0698 29.428 63.7592 29.164C64.4485 28.9 65.1965 28.768 66.0032 28.768C66.9858 28.768 67.8512 28.9513 68.5992 29.318C69.3472 29.67 69.9265 30.1687 70.3372 30.814C70.7625 31.4447 70.9752 32.1853 70.9752 33.036V41H68.2472V38.954L68.8632 38.91C68.5552 39.4233 68.1885 39.856 67.7632 40.208C67.3378 40.5453 66.8538 40.8093 66.3112 41C65.7685 41.176 65.1672 41.264 64.5072 41.264ZM73.6389 41V29.032H76.3449V31.694L76.1249 31.298C76.4035 30.4033 76.8362 29.78 77.4229 29.428C78.0242 29.076 78.7429 28.9 79.5789 28.9H80.2829V31.452H79.2489C78.4275 31.452 77.7675 31.7087 77.2689 32.222C76.7702 32.7207 76.5209 33.4247 76.5209 34.334V41H73.6389ZM87.5434 41.264C86.3114 41.264 85.2334 40.9853 84.3094 40.428C83.3854 39.8707 82.6667 39.1153 82.1534 38.162C81.6401 37.2087 81.3834 36.1527 81.3834 34.994C81.3834 33.7913 81.6401 32.728 82.1534 31.804C82.6814 30.8653 83.3927 30.1247 84.2874 29.582C85.1967 29.0393 86.2087 28.768 87.3234 28.768C88.2621 28.768 89.0834 28.922 89.7874 29.23C90.5061 29.538 91.1147 29.9633 91.6134 30.506C92.1121 31.0487 92.4934 31.672 92.7574 32.376C93.0214 33.0653 93.1534 33.8133 93.1534 34.62C93.1534 34.8253 93.1387 35.038 93.1094 35.258C93.0947 35.478 93.0581 35.6687 92.9994 35.83H83.7594V33.63H91.3714L90.0074 34.664C90.1394 33.9893 90.1027 33.388 89.8974 32.86C89.7067 32.332 89.3841 31.914 88.9294 31.606C88.4894 31.298 87.9541 31.144 87.3234 31.144C86.7221 31.144 86.1867 31.298 85.7174 31.606C85.2481 31.8993 84.8887 32.3393 84.6394 32.926C84.4047 33.498 84.3167 34.1947 84.3754 35.016C84.3167 35.7493 84.4121 36.402 84.6614 36.974C84.9254 37.5313 85.3067 37.964 85.8054 38.272C86.3187 38.58 86.9054 38.734 87.5654 38.734C88.2254 38.734 88.7827 38.5947 89.2374 38.316C89.7067 38.0373 90.0734 37.6633 90.3374 37.194L92.6694 38.338C92.4347 38.91 92.0681 39.416 91.5694 39.856C91.0707 40.296 90.4767 40.6407 89.7874 40.89C89.1127 41.1393 88.3647 41.264 87.5434 41.264Z" fill="black"/>
</svg>
